<?xml version="1.0" encoding="iso-8859-1"?>
<!-- Uploaded to: SVG Repo, www.svgrepo.com, Generator: SVG Repo Mixer Tools -->
<svg fill="#000000" height="800px" width="800px" version="1.1" id="Layer_1" xmlns="http://www.w3.org/2000/svg" xmlns:xlink="http://www.w3.org/1999/xlink" 
	 viewBox="0 0 512 512" xml:space="preserve">
<g>
	<g>
		<g>
			<path d="M256,0c-10.345,0-18.732,8.387-18.732,18.732v92.994c0,10.345,8.387,18.732,18.732,18.732s18.732-8.387,18.732-18.732
				V18.732C274.732,8.387,266.345,0,256,0z"/>
			<path d="M256,381.542c-10.345,0-18.732,8.387-18.732,18.732v92.994c0,10.345,8.387,18.732,18.732,18.732
				s18.732-8.387,18.732-18.732v-92.994C274.732,389.929,266.345,381.542,256,381.542z"/>
			<path d="M140.42,167.639l-80.535-46.497c-8.959-5.172-20.415-2.102-25.588,6.857c-5.172,8.96-2.103,20.416,6.856,25.589
				l80.535,46.497c8.96,5.174,20.416,2.103,25.588-6.857C152.449,184.268,149.379,172.811,140.42,167.639z"/>
			<path d="M470.846,358.414l-80.535-46.497c-8.96-5.174-20.416-2.103-25.587,6.856c-5.172,8.959-2.103,20.415,6.856,25.588
				l80.535,46.497c8.96,5.172,20.416,2.102,25.588-6.855C482.875,375.042,479.805,363.586,470.846,358.414z"/>
			<path d="M121.689,311.914l-80.535,46.497c-8.959,5.174-12.028,16.63-6.856,25.589c5.175,8.964,16.633,12.026,25.588,6.855
				l80.535-46.497c8.959-5.172,12.028-16.629,6.856-25.588C142.105,309.811,130.647,306.742,121.689,311.914z"/>
			<path d="M390.311,200.086l80.535-46.497c8.959-5.174,12.028-16.63,6.856-25.589c-5.171-8.96-16.629-12.029-25.588-6.857
				L371.58,167.64c-8.959,5.174-12.028,16.63-6.856,25.589C369.898,202.193,381.356,205.255,390.311,200.086z"/>
		</g>
	</g>
</g>
</svg>